ply
format ascii 1.0
comment VTK generated PLY File
obj_info vtkPolyData points and polygons: vtk4.0
element vertex 48
property float x
property float y
property float z
element face 60
property list uchar int vertex_indices
end_header
-1.0392290353775024 -0.60000240802764893 -1 
-0.95262718200683594 -0.55000132322311401 -1 
-0.95262974500656128 -0.5500023365020752 -0.8673139214515686 
-1.0392292737960815 -0.60000211000442505 -0.86666667461395264 
-0.86602526903152466 -0.5000002384185791 -1 
-0.86602544784545898 -0.49999988079071045 -0.86666667461395264 
-0.86602568626403809 -0.49999955296516418 1 
-0.95262759923934937 -0.55000066757202148 1 
-0.95260286331176758 -0.54998683929443359 0.86725825071334839 
-0.86602544784545898 -0.49999988079071045 0.86666667461395264 
-1.0392295122146606 -0.6000017523765564 1 
-1.0392292737960815 -0.60000211000442505 0.86666667461395264 
-0.86602544784545898 -0.49999988079071045 -0.73333334922790527 
-0.95262616872787476 -0.55000030994415283 -0.73360919952392578 
-0.86602544784545898 -0.49999988079071045 -0.60000002384185791 
-0.95262807607650757 -0.55000138282775879 -0.60008800029754639 
-0.86602544784545898 -0.49999988079071045 -0.46666666865348816 
-0.95262700319290161 -0.55000078678131104 -0.46669304370880127 
-0.86602544784545898 -0.49999988079071045 -0.3333333432674408 
-0.95262759923934937 -0.55000108480453491 -0.33334031701087952 
-0.86602544784545898 -0.49999988079071045 -0.20000000298023224 
-0.95262765884399414 -0.55000114440917969 -0.20000176131725311 
-0.86602544784545898 -0.49999988079071045 -0.066666670143604279 
-0.95262742042541504 -0.55000102519989014 -0.066667079925537109 
-0.86602544784545898 -0.49999988079071045 0.066666670143604279 
-0.95262742042541504 -0.55000102519989014 0.066667594015598297 
-0.86602544784545898 -0.49999988079071045 0.20000000298023224 
-0.95262753963470459 -0.55000108480453491 0.20001330971717834 
-0.86602544784545898 -0.49999988079071045 0.3333333432674408 
-0.95262676477432251 -0.55000060796737671 0.33337283134460449 
-0.86602544784545898 -0.49999988079071045 0.46666666865348816 
-0.95262438058853149 -0.54999929666519165 0.4668043851852417 
-0.86602544784545898 -0.49999988079071045 0.60000002384185791 
-0.95260310173034668 -0.54998695850372314 0.60059827566146851 
-0.86602544784545898 -0.49999988079071045 0.73333334922790527 
-0.95261859893798828 -0.54999589920043945 0.73354750871658325 
-1.0392292737960815 -0.60000211000442505 0.73333334922790527 
-1.0392292737960815 -0.60000211000442505 0.60000002384185791 
-1.0392292737960815 -0.60000211000442505 0.46666666865348816 
-1.0392292737960815 -0.60000211000442505 0.3333333432674408 
-1.0392292737960815 -0.60000211000442505 0.20000000298023224 
-1.0392292737960815 -0.60000211000442505 0.066666670143604279 
-1.0392292737960815 -0.60000211000442505 -0.066666670143604279 
-1.0392292737960815 -0.60000211000442505 -0.20000000298023224 
-1.0392292737960815 -0.60000211000442505 -0.3333333432674408 
-1.0392292737960815 -0.60000211000442505 -0.46666666865348816 
-1.0392292737960815 -0.60000211000442505 -0.60000002384185791 
-1.0392292737960815 -0.60000211000442505 -0.73333334922790527 
3 0 1 2 
3 0 2 3 
3 4 5 2 
3 4 2 1 
3 6 7 8 
3 6 8 9 
3 10 11 8 
3 10 8 7 
3 5 12 13 
3 5 13 2 
3 12 14 15 
3 12 15 13 
3 14 16 17 
3 14 17 15 
3 16 18 19 
3 16 19 17 
3 18 20 21 
3 18 21 19 
3 20 22 23 
3 20 23 21 
3 24 25 23 
3 24 23 22 
3 26 27 25 
3 26 25 24 
3 28 29 27 
3 28 27 26 
3 30 31 29 
3 30 29 28 
3 32 33 31 
3 32 31 30 
3 34 35 33 
3 34 33 32 
3 9 8 35 
3 9 35 34 
3 11 36 35 
3 11 35 8 
3 36 37 33 
3 36 33 35 
3 37 38 31 
3 37 31 33 
3 38 39 29 
3 38 29 31 
3 39 40 27 
3 39 27 29 
3 40 41 25 
3 40 25 27 
3 41 42 23 
3 41 23 25 
3 43 21 23 
3 43 23 42 
3 44 19 21 
3 44 21 43 
3 45 17 19 
3 45 19 44 
3 46 15 17 
3 46 17 45 
3 15 46 47 
3 15 47 13 
3 3 2 13 
3 3 13 47 
