ply
format ascii 1.0
comment VTK generated PLY File
obj_info vtkPolyData points and polygons: vtk4.0
element vertex 208
property float x
property float y
property float z
element face 360
property list uchar int vertex_indices
end_header
-0.49999955296516418 -0.86602568626403809 -1 
-0.38268306851387024 -0.92387968301773071 -1 
-0.38254055380821228 -0.92393869161605835 -0.86717653274536133 
-0.49999988079071045 -0.86602544784545898 -0.86666667461395264 
-0.25881880521774292 -0.96592587232589722 -1 
-0.25884926319122314 -0.96591770648956299 -0.86711734533309937 
-0.13052606582641602 -0.99144488573074341 -1 
-0.13064368069171906 -0.99142938852310181 -0.86684703826904297 
0 -1 -1 
0 -1 -0.86666667461395264 
0 -1 1 
-0.13052625954151154 -0.99144482612609863 1 
-0.13053078949451447 -0.99144423007965088 0.86685419082641602 
0 -1 0.86666667461395264 
-0.25881916284561157 -0.96592581272125244 1 
-0.25866895914077759 -0.96596604585647583 0.86699521541595459 
-0.38268360495567322 -0.92387944459915161 1 
-0.38250738382339478 -0.92395246028900146 0.86689931154251099 
-0.5000002384185791 -0.86602526903152466 1 
-0.49999988079071045 -0.86602544784545898 0.86666667461395264 
0 -1 -0.73333334922790527 
-0.13059130311012268 -0.99143630266189575 -0.73368978500366211 
0 -1 -0.60000002384185791 
-0.13046392798423767 -0.99145305156707764 -0.60034751892089844 
0 -1 -0.46666666865348816 
-0.1304669976234436 -0.99145263433456421 -0.4668523371219635 
0 -1 -0.3333333432674408 
-0.13047200441360474 -0.99145197868347168 -0.33353978395462036 
0 -1 -0.20000000298023224 
-0.13047781586647034 -0.9914512038230896 -0.20010656118392944 
0 -1 -0.066666670143604279 
-0.13044507801532745 -0.9914555549621582 -0.066716372966766357 
0 -1 0.066666670143604279 
-0.13056974112987518 -0.9914391040802002 0.066746480762958527 
0 -1 0.20000000298023224 
-0.13059286773204803 -0.99143606424331665 0.20005223155021667 
0 -1 0.3333333432674408 
-0.13052600622177124 -0.99144488573074341 0.33342096209526062 
0 -1 0.46666666865348816 
-0.13055962324142456 -0.99144047498703003 0.46689328551292419 
0 -1 0.60000002384185791 
-0.13059447705745697 -0.99143588542938232 0.6003577709197998 
0 -1 0.73333334922790527 
-0.13047337532043457 -0.99145179986953735 0.73364448547363281 
-0.49999988079071045 -0.86602544784545898 0.73333334922790527 
-0.38251799345016479 -0.92394804954528809 0.73366892337799072 
-0.49999988079071045 -0.86602544784545898 0.60000002384185791 
-0.38268199563026428 -0.92388010025024414 0.60033601522445679 
-0.49999988079071045 -0.86602544784545898 0.46666666865348816 
-0.38280799984931946 -0.92382794618606567 0.46691134572029114 
-0.49999988079071045 -0.86602544784545898 0.3333333432674408 
-0.38270258903503418 -0.92387157678604126 0.33346366882324219 
-0.49999988079071045 -0.86602544784545898 0.20000000298023224 
-0.38273203372955322 -0.92385941743850708 0.20007215440273285 
-0.49999988079071045 -0.86602544784545898 0.066666670143604279 
-0.38268417119979858 -0.92387920618057251 0.06667058914899826 
-0.49999988079071045 -0.86602544784545898 -0.066666670143604279 
-0.38267546892166138 -0.92388284206390381 -0.066740632057189941 
-0.49999988079071045 -0.86602544784545898 -0.20000000298023224 
-0.38266539573669434 -0.92388701438903809 -0.2001623809337616 
-0.49999988079071045 -0.86602544784545898 -0.3333333432674408 
-0.38264483213424683 -0.92389553785324097 -0.33356562256813049 
-0.49999988079071045 -0.86602544784545898 -0.46666666865348816 
-0.38259783387184143 -0.92391496896743774 -0.46694120764732361 
-0.49999988079071045 -0.86602544784545898 -0.60000002384185791 
-0.38257801532745361 -0.92392319440841675 -0.60050660371780396 
-0.49999988079071045 -0.86602544784545898 -0.73333334922790527 
-0.38265034556388855 -0.92389321327209473 -0.73386663198471069 
-0.25877460837364197 -0.96593773365020752 -0.73387467861175537 
-0.25866752862930298 -0.96596640348434448 0.73375540971755981 
-0.25886818766593933 -0.96591264009475708 0.60039502382278442 
-0.25886008143424988 -0.96591484546661377 0.46693423390388489 
-0.25887537002563477 -0.96591073274612427 0.33349499106407166 
-0.25884625315666199 -0.96591854095458984 0.20007960498332977 
-0.2588239312171936 -0.96592450141906738 0.06668737530708313 
-0.25878515839576721 -0.96593493223190308 -0.066736601293087006 
-0.25877556204795837 -0.96593749523162842 -0.20022125542163849 
-0.25876203179359436 -0.96594107151031494 -0.3335680365562439 
-0.25870850682258606 -0.96595543622970581 -0.46704509854316711 
-0.25873753428459167 -0.96594768762588501 -0.60044312477111816 
-0.60876166820526123 -0.79335314035415649 1 
-0.60888403654098511 -0.79325926303863525 0.86717653274536133 
-0.7071070671081543 -0.70710653066635132 1 
-0.70708465576171875 -0.70712888240814209 0.86711728572845459 
-0.7933536171913147 -0.60876107215881348 1 
-0.79328125715255737 -0.60885530710220337 0.86684703826904297 
-0.86602568626403809 -0.49999955296516418 1 
-0.86602544784545898 -0.49999988079071045 0.86666667461395264 
-0.86602526903152466 -0.5000002384185791 -1 
-0.79335314035415649 -0.60876166820526123 -1 
-0.7933504581451416 -0.60876518487930298 -0.86685419082641602 
-0.86602544784545898 -0.49999988079071045 -0.86666667461395264 
-0.70710653066635132 -0.7071070671081543 -1 
-0.70721656084060669 -0.70699703693389893 -0.86699521541595459 
-0.60876107215881348 -0.7933536171913147 -1 
-0.60891240835189819 -0.79323744773864746 -0.86689931154251099 
-0.86602544784545898 -0.49999988079071045 0.73333334922790527 
-0.79331338405609131 -0.60881346464157104 0.73368978500366211 
-0.86602544784545898 -0.49999988079071045 0.60000002384185791 
-0.79339158535003662 -0.60871154069900513 0.60034751892089844 
-0.86602544784545898 -0.49999988079071045 0.46666666865348816 
-0.79338967800140381 -0.60871404409408569 0.46685230731964111 
-0.86602544784545898 -0.49999988079071045 0.3333333432674408 
-0.79338663816452026 -0.60871803760528564 0.33353975415229797 
-0.86602544784545898 -0.49999988079071045 0.20000000298023224 
-0.79338306188583374 -0.60872268676757812 0.20010656118392944 
-0.86602544784545898 -0.49999988079071045 0.066666670143604279 
-0.79340314865112305 -0.60869652032852173 0.066716372966766357 
-0.86602544784545898 -0.49999988079071045 -0.066666670143604279 
-0.79332661628723145 -0.60879623889923096 -0.066746480762958527 
-0.86602544784545898 -0.49999988079071045 -0.20000000298023224 
-0.7933124303817749 -0.6088147759437561 -0.20005223155021667 
-0.86602544784545898 -0.49999988079071045 -0.3333333432674408 
-0.79335349798202515 -0.6087612509727478 -0.33342096209526062 
-0.86602544784545898 -0.49999988079071045 -0.46666666865348816 
-0.79333281517028809 -0.6087881326675415 -0.46689328551292419 
-0.86602544784545898 -0.49999988079071045 -0.60000002384185791 
-0.79331141710281372 -0.60881602764129639 -0.6003577709197998 
-0.86602544784545898 -0.49999988079071045 -0.73333334922790527 
-0.79338574409484863 -0.60871917009353638 -0.73364448547363281 
-0.60890334844589233 -0.79324442148208618 -0.73366892337799072 
-0.60876250267028809 -0.79335248470306396 -0.60033601522445679 
-0.60865432024002075 -0.79343551397323608 -0.46691134572029114 
-0.60874485969543457 -0.79336607456207275 -0.33346366882324219 
-0.6087195873260498 -0.79338544607162476 -0.20007215440273285 
-0.60876065492630005 -0.79335391521453857 -0.066670596599578857 
-0.60876810550689697 -0.79334819316864014 0.066740624606609344 
-0.60877680778503418 -0.79334157705307007 0.2001623660326004 
-0.6087944507598877 -0.79332798719406128 0.33356562256813049 
-0.60883480310440063 -0.79329705238342285 0.46694120764732361 
-0.60885179042816162 -0.79328399896621704 0.60050654411315918 
-0.60878974199295044 -0.79333162307739258 0.73386657238006592 
-0.70713931322097778 -0.70707428455352783 0.73387467861175537 
-0.70721763372421265 -0.70699590444564819 -0.73375540971755981 
-0.70707076787948608 -0.70714282989501953 -0.60039502382278442 
-0.70707666873931885 -0.70713686943054199 -0.46693423390388489 
-0.70706552267074585 -0.70714807510375977 -0.33349499106407166 
-0.70708680152893066 -0.70712673664093018 -0.20007960498332977 
-0.7071031928062439 -0.70711040496826172 -0.06668737530708313 
-0.70713156461715698 -0.70708203315734863 0.066736593842506409 
-0.70713859796524048 -0.70707499980926514 0.20022125542163849 
-0.70714849233627319 -0.70706510543823242 0.3335680365562439 
-0.70718765258789062 -0.70702588558197021 0.46704506874084473 
-0.70716643333435059 -0.70704716444015503 0.60044306516647339 
-0.92387968301773071 -0.38268306851387024 1 
-0.92393869161605835 -0.38254055380821228 0.86717653274536133 
-0.96592587232589722 -0.25881880521774292 1 
-0.96591770648956299 -0.25884926319122314 0.86711734533309937 
-0.99144488573074341 -0.13052606582641602 1 
-0.99142938852310181 -0.13064368069171906 0.86684703826904297 
-1 0 1 
-1 0 0.86666667461395264 
-1 0 -1 
-0.99144482612609863 -0.13052625954151154 -1 
-0.99144423007965088 -0.13053078949451447 -0.86685419082641602 
-1 0 -0.86666667461395264 
-0.96592581272125244 -0.25881916284561157 -1 
-0.96596604585647583 -0.25866895914077759 -0.86699521541595459 
-0.92387944459915161 -0.38268360495567322 -1 
-0.92395246028900146 -0.38250738382339478 -0.86689931154251099 
-1 0 0.73333334922790527 
-0.99143630266189575 -0.13059130311012268 0.73368978500366211 
-1 0 0.60000002384185791 
-0.99145305156707764 -0.13046392798423767 0.60034751892089844 
-1 0 0.46666666865348816 
-0.99145263433456421 -0.1304669976234436 0.4668523371219635 
-1 0 0.3333333432674408 
-0.99145197868347168 -0.13047200441360474 0.33353978395462036 
-1 0 0.20000000298023224 
-0.9914512038230896 -0.13047781586647034 0.20010656118392944 
-1 0 0.066666670143604279 
-0.9914555549621582 -0.13044507801532745 0.066716372966766357 
-1 0 -0.066666670143604279 
-0.9914391040802002 -0.13056974112987518 -0.066746480762958527 
-1 0 -0.20000000298023224 
-0.99143606424331665 -0.13059286773204803 -0.20005223155021667 
-1 0 -0.3333333432674408 
-0.99144488573074341 -0.13052600622177124 -0.33342096209526062 
-1 0 -0.46666666865348816 
-0.99144047498703003 -0.13055962324142456 -0.46689328551292419 
-1 0 -0.60000002384185791 
-0.99143588542938232 -0.13059447705745697 -0.6003577709197998 
-1 0 -0.73333334922790527 
-0.99145179986953735 -0.13047337532043457 -0.73364448547363281 
-0.92394804954528809 -0.38251799345016479 -0.73366892337799072 
-0.92388010025024414 -0.38268199563026428 -0.60033601522445679 
-0.92382794618606567 -0.38280799984931946 -0.46691134572029114 
-0.92387157678604126 -0.38270258903503418 -0.33346366882324219 
-0.92385941743850708 -0.38273203372955322 -0.20007215440273285 
-0.92387920618057251 -0.38268417119979858 -0.06667058914899826 
-0.92388284206390381 -0.38267546892166138 0.066740632057189941 
-0.92388701438903809 -0.38266539573669434 0.2001623809337616 
-0.92389553785324097 -0.38264483213424683 0.33356562256813049 
-0.92391496896743774 -0.38259783387184143 0.46694120764732361 
-0.92392319440841675 -0.38257801532745361 0.60050660371780396 
-0.92389321327209473 -0.38265034556388855 0.73386663198471069 
-0.96593773365020752 -0.25877460837364197 0.73387467861175537 
-0.96596640348434448 -0.25866752862930298 -0.73375540971755981 
-0.96591264009475708 -0.25886818766593933 -0.60039502382278442 
-0.96591484546661377 -0.25886008143424988 -0.46693423390388489 
-0.96591073274612427 -0.25887537002563477 -0.33349499106407166 
-0.96591854095458984 -0.25884625315666199 -0.20007960498332977 
-0.96592450141906738 -0.2588239312171936 -0.06668737530708313 
-0.96593493223190308 -0.25878515839576721 0.066736601293087006 
-0.96593749523162842 -0.25877556204795837 0.20022125542163849 
-0.96594107151031494 -0.25876203179359436 0.3335680365562439 
-0.96595543622970581 -0.25870850682258606 0.46704509854316711 
-0.96594768762588501 -0.25873753428459167 0.60044312477111816 
3 0 1 2 
3 0 2 3 
3 4 5 2 
3 4 2 1 
3 6 7 5 
3 6 5 4 
3 6 8 9 
3 6 9 7 
3 10 11 12 
3 10 12 13 
3 11 14 15 
3 11 15 12 
3 14 16 17 
3 14 17 15 
3 16 18 19 
3 16 19 17 
3 9 20 21 
3 9 21 7 
3 20 22 23 
3 20 23 21 
3 22 24 25 
3 22 25 23 
3 24 26 27 
3 24 27 25 
3 26 28 29 
3 26 29 27 
3 28 30 31 
3 28 31 29 
3 32 33 31 
3 32 31 30 
3 34 35 33 
3 34 33 32 
3 36 37 35 
3 36 35 34 
3 38 39 37 
3 38 37 36 
3 40 41 39 
3 40 39 38 
3 42 43 41 
3 42 41 40 
3 13 12 43 
3 13 43 42 
3 19 44 45 
3 19 45 17 
3 44 46 47 
3 44 47 45 
3 46 48 49 
3 46 49 47 
3 48 50 51 
3 48 51 49 
3 50 52 53 
3 50 53 51 
3 52 54 55 
3 52 55 53 
3 56 57 55 
3 56 55 54 
3 58 59 57 
3 58 57 56 
3 60 61 59 
3 60 59 58 
3 62 63 61 
3 62 61 60 
3 64 65 63 
3 64 63 62 
3 66 67 65 
3 66 65 64 
3 3 2 67 
3 3 67 66 
3 5 68 67 
3 5 67 2 
3 7 21 68 
3 7 68 5 
3 12 15 69 
3 12 69 43 
3 17 45 69 
3 17 69 15 
3 45 47 70 
3 45 70 69 
3 47 49 71 
3 47 71 70 
3 51 72 71 
3 51 71 49 
3 51 53 73 
3 51 73 72 
3 55 74 73 
3 55 73 53 
3 57 75 74 
3 57 74 55 
3 59 76 75 
3 59 75 57 
3 61 77 76 
3 61 76 59 
3 63 78 77 
3 63 77 61 
3 63 65 79 
3 63 79 78 
3 65 67 68 
3 65 68 79 
3 21 23 79 
3 21 79 68 
3 23 25 78 
3 23 78 79 
3 25 27 77 
3 25 77 78 
3 27 29 76 
3 27 76 77 
3 29 31 75 
3 29 75 76 
3 33 74 75 
3 33 75 31 
3 35 73 74 
3 35 74 33 
3 37 72 73 
3 37 73 35 
3 39 71 72 
3 39 72 37 
3 71 39 41 
3 71 41 70 
3 41 43 69 
3 41 69 70 
3 18 80 81 
3 18 81 19 
3 82 83 81 
3 82 81 80 
3 84 85 83 
3 84 83 82 
3 84 86 87 
3 84 87 85 
3 88 89 90 
3 88 90 91 
3 89 92 93 
3 89 93 90 
3 92 94 95 
3 92 95 93 
3 94 0 3 
3 94 3 95 
3 87 96 97 
3 87 97 85 
3 96 98 99 
3 96 99 97 
3 98 100 101 
3 98 101 99 
3 100 102 103 
3 100 103 101 
3 102 104 105 
3 102 105 103 
3 104 106 107 
3 104 107 105 
3 108 109 107 
3 108 107 106 
3 110 111 109 
3 110 109 108 
3 112 113 111 
3 112 111 110 
3 114 115 113 
3 114 113 112 
3 116 117 115 
3 116 115 114 
3 118 119 117 
3 118 117 116 
3 91 90 119 
3 91 119 118 
3 3 66 120 
3 3 120 95 
3 66 64 121 
3 66 121 120 
3 64 62 122 
3 64 122 121 
3 62 60 123 
3 62 123 122 
3 60 58 124 
3 60 124 123 
3 58 56 125 
3 58 125 124 
3 54 126 125 
3 54 125 56 
3 52 127 126 
3 52 126 54 
3 50 128 127 
3 50 127 52 
3 48 129 128 
3 48 128 50 
3 46 130 129 
3 46 129 48 
3 44 131 130 
3 44 130 46 
3 19 81 131 
3 19 131 44 
3 83 132 131 
3 83 131 81 
3 85 97 132 
3 85 132 83 
3 90 93 133 
3 90 133 119 
3 95 120 133 
3 95 133 93 
3 120 121 134 
3 120 134 133 
3 121 122 135 
3 121 135 134 
3 123 136 135 
3 123 135 122 
3 123 124 137 
3 123 137 136 
3 125 138 137 
3 125 137 124 
3 126 139 138 
3 126 138 125 
3 127 140 139 
3 127 139 126 
3 128 141 140 
3 128 140 127 
3 129 142 141 
3 129 141 128 
3 129 130 143 
3 129 143 142 
3 130 131 132 
3 130 132 143 
3 97 99 143 
3 97 143 132 
3 99 101 142 
3 99 142 143 
3 101 103 141 
3 101 141 142 
3 103 105 140 
3 103 140 141 
3 105 107 139 
3 105 139 140 
3 109 138 139 
3 109 139 107 
3 111 137 138 
3 111 138 109 
3 113 136 137 
3 113 137 111 
3 115 135 136 
3 115 136 113 
3 135 115 117 
3 135 117 134 
3 117 119 133 
3 117 133 134 
3 86 144 145 
3 86 145 87 
3 146 147 145 
3 146 145 144 
3 148 149 147 
3 148 147 146 
3 148 150 151 
3 148 151 149 
3 152 153 154 
3 152 154 155 
3 153 156 157 
3 153 157 154 
3 156 158 159 
3 156 159 157 
3 158 88 91 
3 158 91 159 
3 151 160 161 
3 151 161 149 
3 160 162 163 
3 160 163 161 
3 162 164 165 
3 162 165 163 
3 164 166 167 
3 164 167 165 
3 166 168 169 
3 166 169 167 
3 168 170 171 
3 168 171 169 
3 172 173 171 
3 172 171 170 
3 174 175 173 
3 174 173 172 
3 176 177 175 
3 176 175 174 
3 178 179 177 
3 178 177 176 
3 180 181 179 
3 180 179 178 
3 182 183 181 
3 182 181 180 
3 155 154 183 
3 155 183 182 
3 91 118 184 
3 91 184 159 
3 118 116 185 
3 118 185 184 
3 116 114 186 
3 116 186 185 
3 114 112 187 
3 114 187 186 
3 112 110 188 
3 112 188 187 
3 110 108 189 
3 110 189 188 
3 106 190 189 
3 106 189 108 
3 104 191 190 
3 104 190 106 
3 102 192 191 
3 102 191 104 
3 100 193 192 
3 100 192 102 
3 98 194 193 
3 98 193 100 
3 96 195 194 
3 96 194 98 
3 87 145 195 
3 87 195 96 
3 147 196 195 
3 147 195 145 
3 149 161 196 
3 149 196 147 
3 154 157 197 
3 154 197 183 
3 159 184 197 
3 159 197 157 
3 184 185 198 
3 184 198 197 
3 185 186 199 
3 185 199 198 
3 187 200 199 
3 187 199 186 
3 187 188 201 
3 187 201 200 
3 189 202 201 
3 189 201 188 
3 190 203 202 
3 190 202 189 
3 191 204 203 
3 191 203 190 
3 192 205 204 
3 192 204 191 
3 193 206 205 
3 193 205 192 
3 193 194 207 
3 193 207 206 
3 194 195 196 
3 194 196 207 
3 161 163 207 
3 161 207 196 
3 163 165 206 
3 163 206 207 
3 165 167 205 
3 165 205 206 
3 167 169 204 
3 167 204 205 
3 169 171 203 
3 169 203 204 
3 173 202 203 
3 173 203 171 
3 175 201 202 
3 175 202 173 
3 177 200 201 
3 177 201 175 
3 179 199 200 
3 179 200 177 
3 199 179 181 
3 199 181 198 
3 181 183 197 
3 181 197 198 
