ply
format ascii 1.0
comment VTK generated PLY File
obj_info vtkPolyData points and polygons: vtk4.0
element vertex 27
property float x
property float y
property float z
element face 32
property list uchar int vertex_indices
end_header
0.51264399290084839 0.5 0.98793500661849976 
0.25636658072471619 0.5 0.99577063322067261 
0.51264399290084839 0.75 0.98793500661849976 
1.2766964435577393 0.75 0.9059903621673584 
1.2766964435577393 0.5 0.9059903621673584 
1.023661732673645 0.5 0.94704872369766235 
1.023661732673645 0.75 0.94704872369766235 
0.76859050989151001 0.75 0.97288423776626587 
0 0.5 1 
0.25636658072471619 0.75 0.99577063322067261 
0.76859050989151001 0.5 0.97288423776626587 
2 0.75 0.64999997615814209 
1.7651851177215576 0.5 0.75295490026473999 
1.7651851177215576 0.75 0.75295490026473999 
2 0.5 0.64999997615814209 
1.5249197483062744 0.75 0.84224575757980347 
1.5249197483062744 0.5 0.84224575757980347 
0 0.75 1 
1.2766964435577393 0.25 0.9059903621673584 
1.5249197483062744 0.25 0.84224575757980347 
0 0.25 1 
0.25636658072471619 0.25 0.99577063322067261 
0.51264399290084839 0.25 0.98793500661849976 
1.023661732673645 0.25 0.94704872369766235 
0.76859050989151001 0.25 0.97288423776626587 
2 0.25 0.64999997615814209 
1.7651851177215576 0.25 0.75295490026473999 
3 0 1 2 
3 3 4 5 
3 6 5 7 
3 1 8 9 
3 7 5 10 
3 11 12 13 
3 12 11 14 
3 15 16 3 
3 13 12 16 
3 16 15 13 
3 3 16 4 
3 5 6 3 
3 7 10 0 
3 7 0 2 
3 9 8 17 
3 2 1 9 
3 18 4 19 
3 8 1 20 
3 20 1 21 
3 21 1 22 
3 22 1 0 
3 10 23 24 
3 23 5 4 
3 25 12 14 
3 12 19 16 
3 22 0 10 
3 22 10 24 
3 5 23 10 
3 19 12 26 
3 4 18 23 
3 26 12 25 
3 19 4 16 
