ply
format ascii 1.0
comment VTK generated PLY File
obj_info vtkPolyData points and polygons: vtk4.0
element vertex 40
property float x
property float y
property float z
element face 57
property list uchar int vertex_indices
end_header
1.2766964435577393 0.5 0.9059903621673584 
1.1250728368759155 0.5 0.6965949535369873 
1.023661732673645 0.5 0.94704872369766235 
0 0.5 0.75 
0 0.5 1 
0.25636658072471619 0.5 0.99577063322067261 
0.22631426155567169 0.5 0.33724004030227661 
0.41809657216072083 0.5 0.21885588765144348 
0.25636658072471619 0.5 0.0042293770238757133 
0.76859050989151001 0.5 0.97288423776626587 
0.61847817897796631 0.5 0.73965346813201904 
0.51264399290084839 0.5 0.98793500661849976 
0.34284514188766479 0.5 0.75420677661895752 
0.45622280240058899 0.5 0.48187911510467529 
0 0.5 0.25 
0 0.5 0.5 
0.88231480121612549 0.5 0.27125981450080872 
1.1203360557556152 0.5 0.29111784696578979 
1.023661732673645 0.5 0.052951306104660034 
1.5249197483062744 0.5 0.84224575757980347 
1.7651851177215576 0.5 0.75295490026473999 
1.6035953760147095 0.5 0.62620621919631958 
1.3772422075271606 0.5 0.61605489253997803 
1.7835018634796143 0.5 0.50623762607574463 
2 0.5 0.34999999403953552 
1.7651851177215576 0.5 0.2470451146364212 
2 0.5 0.64999997615814209 
0 0.5 0 
0.51264399290084839 0.5 0.012065011076629162 
0.74430876970291138 0.5 0.49556571245193481 
0.63036292791366577 0.5 0.25112354755401611 
0.99106645584106445 0.5 0.49532917141914368 
1.1914423704147339 0.5 0.4885515570640564 
1.5249197483062744 0.5 0.15775427222251892 
1.2766964435577393 0.5 0.094009615480899811 
1.3434944152832031 0.5 0.34366095066070557 
1.5663231611251831 0.5 0.41615983843803406 
0.20701242983341217 0.5 0.56548076868057251 
0.87972152233123779 0.5 0.72794574499130249 
0.76859050989151001 0.5 0.027115747332572937 
3 0 1 2 
3 3 4 5 
3 6 7 8 
3 9 10 11 
3 12 10 13 
3 11 12 5 
3 14 15 6 
3 16 17 18 
3 19 20 21 
3 22 19 21 
3 23 24 25 
3 26 24 23 
3 8 27 14 
3 8 14 6 
3 7 28 8 
3 29 30 13 
3 31 1 32 
3 33 34 35 
3 35 22 36 
3 20 26 23 
3 21 23 36 
3 7 6 13 
3 3 37 15 
3 3 5 12 
3 37 6 15 
3 37 3 12 
3 2 38 9 
3 10 12 11 
3 16 39 30 
3 38 10 9 
3 16 18 39 
3 0 19 22 
3 1 38 2 
3 1 0 22 
3 34 17 35 
3 23 25 36 
3 23 21 20 
3 7 30 28 
3 6 37 13 
3 31 17 16 
3 30 39 28 
3 29 31 16 
3 17 34 18 
3 22 21 36 
3 31 32 17 
3 36 33 35 
3 33 36 25 
3 38 29 10 
3 37 12 13 
3 1 31 38 
3 29 13 10 
3 1 22 32 
3 31 29 38 
3 32 35 17 
3 35 32 22 
3 29 16 30 
3 30 7 13 
