ply
format ascii 1.0
comment VTK generated PLY File
obj_info vtkPolyData points and polygons: vtk4.0
element vertex 27
property float x
property float y
property float z
element face 32
property list uchar int vertex_indices
end_header
1.023661732673645 0.75 0.052951306104660034 
0.76859050989151001 0.75 0.027115747332572937 
1.023661732673645 0.5 0.052951306104660034 
0 0.5 0 
0.25636658072471619 0.5 0.0042293770238757133 
0 0.75 0 
0.51264399290084839 0.75 0.012065011076629162 
0.25636658072471619 0.75 0.0042293770238757133 
0.51264399290084839 0.5 0.012065011076629162 
0.76859050989151001 0.5 0.027115747332572937 
1.2766964435577393 0.75 0.094009615480899811 
1.2766964435577393 0.5 0.094009615480899811 
1.7651851177215576 0.5 0.2470451146364212 
2 0.5 0.34999999403953552 
2 0.75 0.34999999403953552 
1.5249197483062744 0.75 0.15775427222251892 
1.5249197483062744 0.5 0.15775427222251892 
1.7651851177215576 0.75 0.2470451146364212 
1.5249197483062744 0.25 0.15775427222251892 
0 0.25 0 
0.25636658072471619 0.25 0.0042293770238757133 
0.51264399290084839 0.25 0.012065011076629162 
1.7651851177215576 0.25 0.2470451146364212 
0.76859050989151001 0.25 0.027115747332572937 
1.023661732673645 0.25 0.052951306104660034 
1.2766964435577393 0.25 0.094009615480899811 
2 0.25 0.34999999403953552 
3 0 1 2 
3 3 4 5 
3 6 7 8 
3 1 9 2 
3 10 2 11 
3 12 13 14 
3 15 10 16 
3 17 16 12 
3 14 17 12 
3 16 17 15 
3 10 11 16 
3 2 10 0 
3 1 8 9 
3 1 6 8 
3 7 5 4 
3 7 4 8 
3 16 11 18 
3 19 20 3 
3 20 4 3 
3 8 4 20 
3 20 21 8 
3 13 12 22 
3 9 23 24 
3 24 11 2 
3 12 16 18 
3 21 9 8 
3 21 23 9 
3 2 9 24 
3 22 12 18 
3 11 24 25 
3 11 25 18 
3 26 13 22 
