ply
format ascii 1.0
comment VTK generated PLY File
obj_info vtkPolyData points and polygons: vtk4.0
element vertex 51
property float x
property float y
property float z
element face 76
property list uchar int vertex_indices
end_header
0.15191027522087097 -0.081177636981010437 0.4595407247543335 
0.15300604701042175 0.080301277339458466 0.4593110978603363 
0.28760287165641785 -0.00032059283694252372 0.39971593022346497 
0.5 -0.5 0 
0.34672325849533081 -0.5 0.11135651916265488 
0.5 -0.34672325849533081 0.11135651916265488 
0.30410915613174438 -0.32832318544387817 0.26309895515441895 
0.12804435193538666 -0.38393431901931763 0.31299200654029846 
0.15013496577739716 -0.24377310276031494 0.39492166042327881 
0 0.34672310948371887 0.36135661602020264 
0 0.5 0.25 
0.1286626011133194 0.38352504372596741 0.31307485699653625 
0.34672325849533081 0.5 0.11135651916265488 
0.30401512980461121 0.32783979177474976 0.26347833871841431 
0.18283708393573761 0.5 0.20596803724765778 
0.18283708393573761 -0.5 0.20596803724765778 
0.31674599647521973 -0.13964352011680603 0.35475906729698181 
0.5 0 0.25 
0.5 -0.18283708393573761 0.20596803724765778 
0.5 0.18283708393573761 0.20596803724765778 
0.31635195016860962 0.13891692459583282 0.35527613759040833 
0.5 0.5 0 
0.5 0.34672325849533081 0.11135651916265488 
0 2.6186512513959315e-07 0.5 
0 -0.34672227501869202 0.361357182264328 
0 -0.18283766508102417 0.45596778392791748 
0 -0.5 0.25 
0.15106913447380066 0.24329052865505219 0.39482986927032471 
0 0.1828378438949585 0.45596769452095032 
-0.15212078392505646 0.24193812906742096 0.39516961574554443 
-0.12945976853370667 0.38236021995544434 0.3136318027973175 
-0.30408751964569092 -0.32845777273178101 0.26302364468574524 
-0.15118077397346497 -0.24437291920185089 0.39418819546699524 
-0.12859560549259186 -0.38414186239242554 0.31265977025032043 
-0.34672325849533081 0.5 0.11135651916265488 
-0.18283708393573761 0.5 0.20596803724765778 
-0.30440330505371094 0.32722067832946777 0.26364094018936157 
-0.15354582667350769 -0.082368157804012299 0.45863762497901917 
-0.15269844233989716 0.079439900815486908 0.45962050557136536 
-0.34672325849533081 -0.5 0.11135651916265488 
-0.18283708393573761 -0.5 0.20596803724765778 
-0.5 -0.18283708393573761 0.20596803724765778 
-0.31660932302474976 -0.14008179306983948 0.35468965768814087 
-0.5 0.18283708393573761 0.20596803724765778 
-0.31667736172676086 0.1381634920835495 0.35533469915390015 
-0.5 -0.34672325849533081 0.11135651916265488 
-0.5 -0.5 0 
-0.5 0.5 0 
-0.5 0.34672325849533081 0.11135651916265488 
-0.5 0 0.25 
-0.28790619969367981 -0.00096931046573445201 0.39952817559242249 
3 0 1 2 
3 3 4 5 
3 6 7 8 
3 9 10 11 
3 12 13 14 
3 13 11 14 
3 10 14 11 
3 6 4 15 
3 16 2 17 
3 6 16 18 
3 13 19 20 
3 21 22 12 
3 1 0 23 
3 7 6 15 
3 24 25 8 
3 26 24 7 
3 11 27 9 
3 1 28 27 
3 27 28 9 
3 28 1 23 
3 15 26 7 
3 5 4 6 
3 27 13 20 
3 12 22 13 
3 27 11 13 
3 13 22 19 
3 18 5 6 
3 25 0 8 
3 16 6 8 
3 16 17 18 
3 19 17 20 
3 1 27 20 
3 1 20 2 
3 0 25 23 
3 0 16 8 
3 7 24 8 
3 16 0 2 
3 2 20 17 
3 9 28 29 
3 10 9 30 
3 31 32 33 
3 34 35 36 
3 23 37 38 
3 39 31 40 
3 40 33 26 
3 29 36 30 
3 41 42 31 
3 33 32 24 
3 43 36 44 
3 44 36 29 
3 45 31 39 
3 46 45 39 
3 35 30 36 
3 47 34 48 
3 36 43 48 
3 35 10 30 
3 23 25 37 
3 42 41 49 
3 33 24 26 
3 32 25 24 
3 28 23 38 
3 30 9 29 
3 38 37 50 
3 29 28 38 
3 37 25 32 
3 42 32 31 
3 45 41 31 
3 31 33 40 
3 38 44 29 
3 36 48 34 
3 49 43 44 
3 44 38 50 
3 42 37 32 
3 49 44 50 
3 42 49 50 
3 42 50 37 
