ply
format ascii 1.0
comment VTK generated PLY File
obj_info vtkPolyData points and polygons: vtk4.0
element vertex 676
property float x
property float y
property float z
element face 1262
property list uchar int vertex_indices
end_header
-0.20454545319080353 0.4430796205997467 0 
-0.16163104772567749 0.42144787311553955 0 
-0.16829858720302582 0.46160438656806946 0 
0.46595892310142517 0.11363636702299118 0 
0.5 0.13636364042758942 0 
0.46645238995552063 0.16842235624790192 0 
0.35534712672233582 0.060748755931854248 0 
0.38657885789871216 0.077971354126930237 0 
0.33443278074264526 0.10855297744274139 0 
0.5 0.18181818723678589 0 
0.3829292356967926 0.21083167195320129 0 
0.34541618824005127 0.21509553492069244 0 
0.35382080078125 0.17828831076622009 0 
0.22727273404598236 0.5 0 
0.24325284361839294 0.44635051488876343 0 
0.27272728085517883 0.5 0 
0.031766202300786972 0.44603133201599121 0 
0.068181820213794708 0.46551531553268433 0 
0.045454546809196472 0.5 0 
0.20454545319080353 0.056316845118999481 0 
0.15909090638160706 0.096590906381607056 0 
0.15909090638160706 0.050803180783987045 0 
0.00048025918658822775 0.46394950151443481 0 
0 0.5 0 
-0.035458218306303024 0.46682974696159363 0 
0.18181818723678589 0 0 
0.13636364042758942 0 0 
0.15909090638160706 0.41163927316665649 0 
0.15909090638160706 0.45874246954917908 0 
0.11134715378284454 0.43471455574035645 0 
-0.047700192779302597 0.14271929860115051 0 
-0.068181820213794708 0.11194700747728348 0 
-0.017213715240359306 0.10817854851484299 0 
-0.045454546809196472 0.5 0 
-0.068181820213794708 0.45545616745948792 0 
-0.050426993519067764 0.082806743681430817 0 
-0.068181820213794708 0.053666479885578156 0 
-0.02044772170484066 0.066508516669273376 0 
-0.15220510959625244 0.044165894389152527 0 
-0.13636364042758942 0 0 
-0.10911232233047485 0.039354544132947922 0 
-0.06297978013753891 0.22524949908256531 0 
-0.084021180868148804 0.26906111836433411 0 
-0.10342475026845932 0.2177128791809082 0 
-0.40398383140563965 0.14068831503391266 0 
-0.38552179932594299 0.17032875120639801 0 
-0.42057210206985474 0.18363572657108307 0 
-0.46055147051811218 0.25 0 
-0.5 0.22727273404598236 0 
-0.44864961504936218 0.20454545319080353 0 
-0.40909090638160706 0.5 0 
-0.44366028904914856 0.46638756990432739 0 
-0.38636362552642822 0.45136362314224243 0 
-0.5 0.27272728085517883 0 
-0.47224026918411255 0.43181818723678589 0 
-0.47476306557655334 0.38636362552642822 0 
-0.43636363744735718 0.43181818723678589 0 
-0.5 0.36363637447357178 0 
-0.46763530373573303 0.32781273126602173 0 
-0.36363637447357178 0.5 0 
-0.5 0.5 0 
-0.47727271914482117 0.47727271914482117 0 
-0.45454546809196472 0.5 0 
-0.36263194680213928 0.29091310501098633 0 
-0.32940316200256348 0.25241193175315857 0 
-0.32496052980422974 0.28709834814071655 0 
-0.19924958050251007 0.39154091477394104 0 
-0.13601060211658478 0.39111441373825073 0 
-0.47718754410743713 0.11363636702299118 0 
-0.44558322429656982 0.15914066135883331 0 
-0.47753763198852539 0.15909090638160706 0 
-0.5 0.18181818723678589 0 
-0.4449860155582428 0.11363636702299118 0 
-0.46290114521980286 0.079054534435272217 0 
-0.34090909361839294 0.055587459355592728 0 
-0.38636362552642822 0.041732005774974823 0 
-0.34090909361839294 0.023147637024521828 0 
-0.40909090638160706 0 0 
-0.36363637447357178 0 0 
-0.38636362552642822 0.09483511745929718 0 
-0.36650833487510681 0.12067819386720657 0 
-0.47727271914482117 0.022727273404598236 0 
-0.45454546809196472 0 0 
-0.43181818723678589 0.023147637024521828 0 
-0.39053672552108765 0.25210809707641602 0 
-0.3924945592880249 0.20454545319080353 0 
-0.36545568704605103 0.22725406289100647 0 
-0.22727273404598236 0 0 
-0.23304606974124908 0.037298601120710373 0 
-0.27272728085517883 0 0 
-0.19841478765010834 0.052304975688457489 0 
-0.14156366884708405 0.31533783674240112 0 
-0.17359793186187744 0.32768881320953369 0 
-0.1759786456823349 0.28352111577987671 0 
-0.15909090638160706 0.090578868985176086 0 
-0.11857029795646667 0.12225399166345596 0 
-0.15862572193145752 0.15953132510185242 0 
-0.29545453190803528 0.4430796205997467 0 
-0.25 0.40196585655212402 0 
-0.23398789763450623 0.4299468994140625 0 
-0.27272728085517883 0.5 0 
-0.25 0.45792794227600098 0 
-0.22727273404598236 0.5 0 
-0.12157529592514038 0.15918397903442383 0 
-0.14548355340957642 0.21264742314815521 0 
0.022727273404598236 0.042438168078660965 0 
-0.010786432772874832 0.033081300556659698 0 
0.017526838928461075 0.39691814780235291 0 
0.034644991159439087 0.34124141931533813 0 
0.06687946617603302 0.34588178992271423 0 
0.22727273404598236 0 0 
0.24998122453689575 0.0399288609623909 0 
0.20454545319080353 0.02357250452041626 0 
0.24602343142032623 0.085692659020423889 0 
0.29545453190803528 0.07386363297700882 0 
0.20252068340778351 0.46170717477798462 0 
0.18181818723678589 0.5 0 
0.43636363744735718 0.068181820213794708 0 
0.42587175965309143 0.10686804354190826 0 
0.42613637447357178 0.29545453190803528 0 
0.39142221212387085 0.29689788818359375 0 
0.40810751914978027 0.25454819202423096 0 
0.47224026918411255 0.068181820213794708 0 
0.43287953734397888 0.03073757141828537 0 
0.39772459864616394 0.044091984629631042 0 
0.36363637447357178 0.25 0 
0.47727271914482117 0.47727271914482117 0 
0.45454546809196472 0.5 0 
0.43181818723678589 0.47224026918411255 0 
0.5 0 0 
0.5 0.045454546809196472 0 
0.47727271914482117 0.022727273404598236 0 
0.45257866382598877 0.25 0 
0.46656468510627747 0.29545453190803528 0 
0.22408801317214966 0.42056980729103088 0 
0.25759929418563843 0.40588852763175964 0 
0.5 0.31818181276321411 0 
0.5 0.36363637447357178 0 
0.45975148677825928 0.34090909361839294 0 
0.29545453190803528 0.46656468510627747 0 
0.34765625 0.44635051488876343 0 
0.34090909361839294 0.47756490111351013 0 
0.5 0.40909090638160706 0 
0.46638756990432739 0.44366028904914856 0 
0.45136362314224243 0.38636362552642822 0 
0.38636362552642822 0.46402576565742493 0 
0.43181818723678589 0.43636363744735718 0 
0.5 0.45454546809196472 0 
0.36363637447357178 0.5 0 
0.38636362552642822 0.38636362552642822 0 
0.34197300672531128 0.36412543058395386 0 
0.38225224614143372 0.33041009306907654 0 
0.27272728085517883 0 0 
0.078775487840175629 0.43471455574035645 0 
0.10233810544013977 0.46773606538772583 0 
0.12661328911781311 0.087458424270153046 0 
0.5 0.22727273404598236 0 
0.5 0.27272728085517883 0 
0.35760059952735901 0.13967461884021759 0 
0.30289667844772339 0.15488354861736298 0 
0.46656468510627747 0.20454545319080353 0 
0.42613637447357178 0.20454545319080353 0 
0.20092128217220306 0.22529341280460358 0 
0.21885409951210022 0.1704484224319458 0 
0.25099951028823853 0.21815681457519531 0 
0.17364956438541412 0.32912644743919373 0 
0.16598741710186005 0.29705694317817688 0 
0.22853653132915497 0.30940800905227661 0 
0.17723864316940308 0.13907729089260101 0 
0.13166715204715729 0.15100972354412079 0 
0.13588728010654449 0.11901704967021942 0 
-0.10992619395256042 0.33115291595458984 0 
-0.15909090638160706 0.35880613327026367 0 
0.25275325775146484 0.33118486404418945 0 
0.2097504734992981 0.35097065567970276 0 
-0.045454546809196472 0 0 
-0.043374612927436829 0.032526470720767975 0 
-0.090909093618392944 0 0 
-0.12733002007007599 0.071573615074157715 0 
-0.43409734964370728 0.27130475640296936 0 
-0.45798248052597046 0.29545453190803528 0 
-0.29545453190803528 0.47607710957527161 0 
-0.34090909361839294 0.45975148677825928 0 
-0.090909093618392944 0.5 0 
-0.20447523891925812 0.30997404456138611 0 
-0.28180491924285889 0.042051151394844055 0 
-0.25 0.071019232273101807 0 
-0.2960415780544281 0.082646973431110382 0 
-0.33797642588615417 0.10492926090955734 0 
-0.29545453190803528 0.13013051450252533 0 
-0.32700523734092712 0.16646771132946014 0 
-0.5 0.045454546809196472 0 
-0.32272696495056152 0.38557779788970947 0 
-0.33081009984016418 0.35416728258132935 0 
-0.2826397716999054 0.3541736900806427 0 
-0.29454591870307922 0.16271762549877167 0 
-0.43409734964370728 0.33174139261245728 0 
-0.38636362552642822 0.38636362552642822 0 
-0.44303280115127563 0.37425485253334045 0 
-0.41013911366462708 0.35897266864776611 0 
-0.32636052370071411 0.32204008102416992 0 
-0.2807980477809906 0.30236068367958069 0 
-0.18181818723678589 0 0 
0.045454546809196472 0 0 
0.069395691156387329 0.04142630472779274 0 
0.022727273404598236 0.090578868985176086 0 
0.014243719168007374 0.12502437829971313 0 
-0.022727273404598236 0.21674464643001556 0 
-0.0032209276687353849 0.18549144268035889 0 
0.016732074320316315 0.2192067950963974 0 
-0.1471698135137558 0.26880541443824768 0 
0.01351119764149189 0.25677782297134399 0 
0.13636364042758942 0.5 0 
0.29545453190803528 0.42613637447357178 0 
0.068181820213794708 0.40391376614570618 0 
0.31818181276321411 0.5 0 
0.33393484354019165 0.40427431464195251 0 
0.30211767554283142 0.37351152300834656 0 
0.35680407285690308 0.29394170641899109 0 
0.33440214395523071 0.2711455225944519 0 
0.29545453190803528 0.033435314893722534 0 
0.32101520895957947 0.053649473935365677 0 
0.20383033156394958 0.10129746794700623 0 
-0.13876242935657501 0.44463393092155457 0 
-0.13636364042758942 0.5 0 
-0.06432574987411499 0.40388497710227966 0 
-0.022727273404598236 0.43460994958877563 0 
-0.20987656712532043 0.10557691007852554 0 
0.11592952907085419 0.38079190254211426 0 
0.13343217968940735 0.34516182541847229 0 
0.17132990062236786 0.37125793099403381 0 
0.13515238463878632 0.19127313792705536 0 
0.099256932735443115 0.21689017117023468 0 
0.087492294609546661 0.16737206280231476 0 
0.40909090638160706 0.5 0 
-0.43181818723678589 0.055587459355592728 0 
-0.5 0.45454546809196472 0 
-0.5 0.40909090638160706 0 
0.5 0.090909093618392944 0 
0.11363636702299118 0.02357250452041626 0 
0.090909093618392944 0 0 
0.046594344079494476 0.066508516669273376 0 
-0.20454545319080353 0.47607710957527161 0 
-0.18181818723678589 0.5 0 
-0.42067915201187134 0.088632188737392426 0 
-0.5 0.13636364042758942 0 
-0.5 0.090909093618392944 0 
-0.31818181276321411 0 0 
0.45454546809196472 0 0 
0.5 0.5 0 
-0.5 0 0 
0.40909090638160706 0 0 
0.36363637447357178 0 0 
0.34090909361839294 0.027838755398988724 0 
0.39387673139572144 0.42519468069076538 0 
0.41826093196868896 0.35589203238487244 0 
0.42093932628631592 0.40329074859619141 0 
0.29389569163322449 0.11485858261585236 0 
0.39545691013336182 0.15872977674007416 0 
0.38636362552642822 0.11363636702299118 0 
0.32145354151725769 0.18161025643348694 0 
-0.017364185303449631 0.39999642968177795 0 
-0.022727273404598236 0.36538287997245789 0 
0.2785491943359375 0.31130394339561462 0 
0.30265611410140991 0.26744377613067627 0 
0.32629871368408203 0.32629871368408203 0 
0.36535927653312683 0.41056996583938599 0 
0.26201176643371582 0.18685747683048248 0 
0.24167588353157043 0.25 0 
0.21924495697021484 0.2761959433555603 0 
0.11363636702299118 0.056316845118999481 0 
0.32372936606407166 0.24101904034614563 0 
0.30786576867103577 0.21117453277111053 0 
0.19251884520053864 0.42651310563087463 0 
0.20743079483509064 0.39310216903686523 0 
0.25 0.36363637447357178 0 
0.27961486577987671 0.34980639815330505 0 
0.26709398627281189 0.27645274996757507 0 
0.27842974662780762 0.23682500422000885 0 
0 0 0 
-0.041098751127719879 0.17909032106399536 0 
0.048389676958322525 0.13464300334453583 0 
0.033562485128641129 0.1834319531917572 0 
0.25 0.13636364042758942 0 
0.082349158823490143 0.07610689103603363 0 
-0.32545161247253418 0.43159499764442444 0 
-0.28883036971092224 0.40471947193145752 0 
-0.20076702535152435 0.3486788272857666 0 
-0.23466220498085022 0.36674955487251282 0 
-0.21881990134716034 0.26959583163261414 0 
-0.091644391417503357 0.082806743681430817 0 
0.12618787586688995 0.26007780432701111 0 
0.07845500111579895 0.28207632899284363 0 
0.084736533463001251 0.24816867709159851 0 
-0.011374147608876228 0.14956392347812653 0 
-0.20501667261123657 0.2290293425321579 0 
-0.25988385081291199 0.25735160708427429 0 
-0.25194782018661499 0.19876086711883545 0 
-0.065634414553642273 0.37119343876838684 0 
-0.5 0.31818181276321411 0 
-0.21333217620849609 0.15841801464557648 0 
-0.25334736704826355 0.11547735333442688 0 
-0.16869579255580902 0.24465727806091309 0 
-0.095963321626186371 0.39671164751052856 0 
-0.11363636702299118 0.42391562461853027 0 
-0.11363636702299118 0.46535226702690125 0 
-0.40247935056686401 0.41886362433433533 0 
-0.36629843711853027 0.34493288397789001 0 
-0.4102121889591217 0.29545453190803528 0 
-0.35607847571372986 0.15155401825904846 0 
-0.082967951893806458 0.18061676621437073 0 
-0.24741335213184357 0.29050981998443604 0 
-0.29558458924293518 0.26812627911567688 0 
-0.35043808817863464 0.19529701769351959 0 
-0.28813332319259644 0.2282826155424118 0 
-0.26240232586860657 0.15728303790092468 0 
-0.35415980219841003 0.41718801856040955 0 
-0.31818181276321411 0.5 0 
-0.42057210206985474 0.22952283918857574 0 
-0.32739272713661194 0.21924056112766266 0 
0.070236369967460632 0.10819849371910095 0 
0.067350409924983978 0.19831401109695435 0 
-0.049842681735754013 0.26423683762550354 0 
-0.12263666093349457 0.28945362567901611 0 
-0.022279351949691772 0.32550865411758423 0 
-0.059804808348417282 0.33899924159049988 0 
0.039525184780359268 0.29905250668525696 0 
0.068939417600631714 0.31338024139404297 0 
0.090909093618392944 0.5 0 
0.43925124406814575 0.14465285837650299 0 
0.31818181276321411 0 0 
-0.097620598971843719 0.36431339383125305 0 
-0.21976073086261749 0.19091729819774628 0 
0.096133925020694733 0.33157196640968323 0 
0.0027682462241500616 0.34572964906692505 0 
0.17511171102523804 0.18522821366786957 0 
-0.0021869312040507793 0.29106378555297852 0 
0.18526419997215271 0.27030682563781738 0 
0.15579614043235779 0.2260168194770813 0 
0.13410685956478119 0.30547067523002625 0 
-0.35466668009757996 0.37614044547080994 0 
-0.0879521444439888 0.14361678063869476 0 
0.049358915537595749 0.26847818493843079 0 
0.052287865430116653 0.23649515211582184 0 
-0.23863600194454193 0.32854428887367249 0 
-0.18663209676742554 0.19106899201869965 0 
-0.38418856263160706 0.31658431887626648 0 
-0.11669863015413284 0.25794228911399841 0 
-0.088075362145900726 0.30333948135375977 0 
-0.30745804309844971 0.19265125691890717 0 
0.10423988103866577 0.11270973831415176 0 
-0.035590779036283493 0.29466122388839722 0 
-0.3600117564201355 -0.32067987322807312 0 
-0.38485458493232727 -0.28652098774909973 0 
-0.40547293424606323 -0.3405691385269165 0 
0.24292115867137909 -0.32134547829627991 0 
0.22141033411026001 -0.28770279884338379 0 
0.19985263049602509 -0.31818976998329163 0 
-0.20025169849395752 -0.46297401189804077 0 
-0.18181818723678589 -0.5 0 
-0.15909090638160706 -0.46703708171844482 0 
0.093419797718524933 -0.20380958914756775 0 
0.12713427841663361 -0.18898703157901764 0 
0.10771128535270691 -0.14505919814109802 0 
-0.15909090638160706 -0.040185663849115372 0 
-0.010361287742853165 -0.38692277669906616 0 
0.022727273404598236 -0.36299198865890503 0 
-0.0108248395845294 -0.33635091781616211 0 
-0.068181820213794708 -0.047649916261434555 0 
-0.11363636702299118 -0.033783372491598129 0 
0.11363636702299118 -0.45477312803268433 0 
0.068181820213794708 -0.42584088444709778 0 
0.068181820213794708 -0.46640300750732422 0 
0.11442159861326218 -0.040739186108112335 0 
0.32991528511047363 -0.033318564295768738 0 
0.32372239232063293 -0.17101956903934479 0 
0.30456528067588806 -0.13273681700229645 0 
0.28016287088394165 -0.16888263821601868 0 
0.5 -0.40909090638160706 0 
0.5 -0.36363637447357178 0 
0.45886874198913574 -0.3943779468536377 0 
0.42613637447357178 -0.20454545319080353 0 
0.41141527891159058 -0.25 0 
0.45840919017791748 -0.24916622042655945 0 
-0.5 -0.045454546809196472 0 
-0.47716948390007019 -0.068181820213794708 0 
-0.47727271914482117 -0.022727273404598236 0 
-0.38636362552642822 -0.036141611635684967 0 
-0.43181818723678589 -0.031568620353937149 0 
-0.41146856546401978 -0.057488419115543365 0 
-0.44495517015457153 -0.068181820213794708 0 
-0.46325969696044922 -0.11861992627382278 0 
-0.44368314743041992 -0.20454545319080353 0 
-0.45808380842208862 -0.15909090638160706 0 
-0.5 -0.18181818723678589 0 
-0.075754113495349884 -0.11344479024410248 0 
-0.11363636702299118 -0.11239676177501678 0 
-0.11363636702299118 -0.15238957107067108 0 
-0.34090909361839294 -0.049245622009038925 0 
-0.29545453190803528 -0.040356054902076721 0 
-0.5 -0.40909090638160706 0 
-0.46638756990432739 -0.44366028904914856 0 
-0.45136362314224243 -0.38636362552642822 0 
-0.5 -0.45454546809196472 0 
-0.47727271914482117 -0.47727271914482117 0 
-0.15909090638160706 -0.4269985556602478 0 
-0.15088781714439392 -0.38552069664001465 0 
-0.19519710540771484 -0.39984568953514099 0 
-0.5 -0.13636364042758942 0 
-0.5 -0.22727273404598236 0 
-0.46812388300895691 -0.22512128949165344 0 
-0.42613637447357178 -0.29545453190803528 0 
-0.45369425415992737 -0.25362569093704224 0 
-0.46656468510627747 -0.29545453190803528 0 
-0.5 -0.27272728085517883 0 
-0.31818181276321411 -0.5 0 
-0.29545453190803528 -0.46704304218292236 0 
-0.34718614816665649 -0.44702622294425964 0 
-0.43181818723678589 -0.47224026918411255 0 
-0.38636362552642822 -0.46390131115913391 0 
-0.43181818723678589 -0.43636363744735718 0 
-0.29545453190803528 -0.088931620121002197 0 
-0.27260014414787292 -0.11855426430702209 0 
-0.24716298282146454 -0.074941404163837433 0 
-0.36363637447357178 -0.5 0 
-0.5 -0.36363637447357178 0 
-0.5 -0.5 0 
-0.45454546809196472 -0.5 0 
-0.11363636702299118 -0.46493446826934814 0 
-0.090909093618392944 -0.5 0 
-0.064102187752723694 -0.46231037378311157 0 
-0.15151861310005188 -0.11344479024410248 0 
-0.15070469677448273 -0.076339751482009888 0 
-0.18421481549739838 -0.074941404163837433 0 
-0.032662317156791687 -0.23335346579551697 0 
-0.045013494789600372 -0.27082809805870056 0 
0.014057203195989132 -0.26346737146377563 0 
-0.022727273404598236 -0.46981757879257202 0 
-0.022727273404598236 -0.42584088444709778 0 
-0.20454545319080353 -0.048266559839248657 0 
0.12828782200813293 -0.33631736040115356 0 
0.17098429799079895 -0.35454922914505005 0 
0.15796776115894318 -0.30316197872161865 0 
0.090909093618392944 -0.5 0 
0.20546877384185791 -0.38563314080238342 0 
0.15909090638160706 -0.40340909361839294 0 
-0.020512891933321953 -0.041614692658185959 0 
0.022727273404598236 -0.024796560406684875 0 
0.35107654333114624 -0.061602871865034103 0 
0.31785929203033447 -0.06599513441324234 0 
0.20454545319080353 -0.44368314743041992 0 
0.16397617757320404 -0.46005532145500183 0 
0.20454545319080353 -0.47642749547958374 0 
0.18990600109100342 -0.41441795229911804 0 
0.24602343142032623 -0.41430732607841492 0 
0.31818181276321411 -0.5 0 
0.34090909361839294 -0.45975148677825928 0 
0.29545453190803528 -0.46656468510627747 0 
0.20454782247543335 -0.041080154478549957 0 
0.29545453190803528 -0.090909093618392944 0 
0.24845466017723083 -0.13893954455852509 0 
0.5 -0.31818181276321411 0 
0.46645238995552063 -0.33157762885093689 0 
0.32189047336578369 -0.27685633301734924 0 
0.28825253248214722 -0.26320278644561768 0 
0.2927740216255188 -0.30495548248291016 0 
0.45454546809196472 -0.5 0 
0.47727271914482117 -0.47727271914482117 0 
0.43181818723678589 -0.46954545378684998 0 
0.43925124406814575 -0.35534712672233582 0 
0.36363637447357178 -0.5 0 
0.40909090638160706 -0.5 0 
0.38636362552642822 -0.45136362314224243 0 
0.5 -0.5 0 
0.5 -0.45454546809196472 0 
0.5 -0.18181818723678589 0 
0.45975148677825928 -0.15909090638160706 0 
0.46656468510627747 -0.20454545319080353 0 
0.25 -0.052831746637821198 0 
0.29545453190803528 -0.041081171482801437 0 
0.45136362314224243 -0.11363636702299118 0 
0.5 -0.090909093618392944 0 
0.46954545378684998 -0.068181820213794708 0 
0.43181818723678589 -0.063636362552642822 0 
0.39196687936782837 -0.041992351412773132 0 
0.43181818723678589 -0.027759740129113197 0 
0.47727271914482117 -0.022727273404598236 0 
0.46656468510627747 -0.29545453190803528 0 
0.42613637447357178 -0.29545453190803528 0 
0.15909090638160706 -0.052813414484262466 0 
0.24511472880840302 -0.46005532145500183 0 
0.29545453190803528 -0.42613637447357178 0 
0.068181820213794708 -0.042475968599319458 0 
0.18181818723678589 -0.5 0 
-0.05832488089799881 -0.40224415063858032 0 
0.32629871368408203 -0.32629871368408203 0 
0.29883360862731934 -0.35644462704658508 0 
0.022727273404598236 -0.41085359454154968 0 
0.012305021286010742 -0.45566681027412415 0 
-0.042925518006086349 -0.072502948343753815 0 
0.043108809739351273 -0.44612196087837219 0 
-0.082321278750896454 -0.31683790683746338 0 
-0.045969106256961823 -0.3243815004825592 0 
-0.11363636702299118 -0.36551988124847412 0 
-0.13281019032001495 -0.31877332925796509 0 
-0.14730656147003174 -0.35066890716552734 0 
-0.25585958361625671 -0.036077030003070831 0 
-0.16982319951057434 -0.32355615496635437 0 
-0.17324727773666382 -0.28847944736480713 0 
-0.20157845318317413 -0.3312109112739563 0 
-0.36886954307556152 -0.17784500122070312 0 
-0.39314445853233337 -0.20875495672225952 0 
-0.35572043061256409 -0.21315860748291016 0 
-0.25 -0.46582958102226257 0 
-0.22727273404598236 -0.5 0 
-0.41886362433433533 -0.40247935056686401 0 
-0.43249544501304626 -0.35938066244125366 0 
-0.32566303014755249 -0.11198693513870239 0 
-0.21054923534393311 -0.2758343517780304 0 
-0.26629716157913208 -0.26791965961456299 0 
-0.25826224684715271 -0.30009475350379944 0 
-0.31739440560340881 -0.23625846207141876 0 
-0.30904826521873474 -0.205400750041008 0 
-0.20454545319080353 -0.10161625593900681 0 
0.20454545319080353 -0.088068179786205292 0 
0.062092047184705734 -0.22795321047306061 0 
0.054916910827159882 -0.18624645471572876 0 
-0.0016328756464645267 -0.19152331352233887 0 
0.022727273404598236 -0.22411172091960907 0 
0.028773447498679161 -0.16778627038002014 0 
0.022727273404598236 -0.058432824909687042 0 
-0.22727236151695251 -0.43165943026542664 0 
-0.25976276397705078 -0.40586391091346741 0 
-0.27958017587661743 -0.35116660594940186 0 
-0.25233215093612671 -0.33272343873977661 0 
-0.29688495397567749 -0.32319822907447815 0 
0.37351152300834656 -0.30211767554283142 0 
0.36363637447357178 -0.25 0 
0.5 -0.27272728085517883 0 
0.33948400616645813 -0.10797302424907684 0 
0.35185408592224121 -0.14455902576446533 0 
0.38636362552642822 -0.11363636702299118 0 
0.5 -0.13636364042758942 0 
0.27766039967536926 -0.39129862189292908 0 
0.33041009306907654 -0.38225224614143372 0 
0.10677351057529449 -0.3868120014667511 0 
0.097873158752918243 -0.35318917036056519 0 
0.055815834552049637 -0.38692277669906616 0 
0.13636364042758942 -0.5 0 
0 -0.5 0 
-0.12437672913074493 -0.41407740116119385 0 
-0.074033893644809723 -0.15960313379764557 0 
-0.087332479655742645 -0.19587151706218719 0 
-0.13636364042758942 -0.5 0 
-0.29545453190803528 -0.42700940370559692 0 
-0.45975148677825928 -0.34090909361839294 0 
-0.40869566798210144 -0.25105887651443481 0 
-0.36363637447357178 -0.25 0 
-0.40340909361839294 -0.15909090638160706 0 
-0.35395622253417969 -0.12765619158744812 0 
-0.3020482063293457 -0.3751848042011261 0 
-0.25 -0.36554363369941711 0 
0.38065627217292786 -0.17028817534446716 0 
0.41747081279754639 -0.14538364112377167 0 
0.47224026918411255 -0.43181818723678589 0 
-0.40909090638160706 -0.5 0 
-0.42284449934959412 -0.11302505433559418 0 
0.11363636702299118 -0.08802235871553421 0 
0.1446576714515686 -0.13517200946807861 0 
0.34159928560256958 -0.20992189645767212 0 
0.023250706493854523 -0.1066998615860939 0 
-0.0074936170130968094 -0.072136819362640381 0 
0.5 -0.045454546809196472 0 
0.41886362433433533 -0.09752066433429718 0 
0.28528514504432678 -0.20235417783260345 0 
0.38883340358734131 -0.077788405120372772 0 
0.24695895612239838 -0.095844939351081848 0 
0.39578145742416382 -0.34182360768318176 0 
0.38636362552642822 -0.38636362552642822 0 
0.42281943559646606 -0.38853201270103455 0 
0.38752582669258118 -0.27246788144111633 0 
0.3843194842338562 -0.21274328231811523 0 
0.35589203238487244 -0.41826093196868896 0 
0.40247935056686401 -0.41886362433433533 0 
0.43636363744735718 -0.43181818723678589 0 
0.15908500552177429 -0.099751047790050507 0 
0.22727273404598236 -0.5 0 
0.12526741623878479 -0.41927152872085571 0 
0.27272728085517883 -0.5 0 
-0.022727273404598236 -0.10161625593900681 0 
0.050374392420053482 -0.14417149126529694 0 
0.30407044291496277 -0.23052676022052765 0 
0.12607696652412415 -0.22580084204673767 0 
0.093839280307292938 -0.23675049841403961 0 
0.25862258672714233 -0.28463020920753479 0 
0.25 -0.36363637447357178 0 
0.19741766154766083 -0.25909259915351868 0 
0.21596275269985199 -0.35080379247665405 0 
0.056599516421556473 -0.082201853394508362 0 
0.070863381028175354 -0.33127611875534058 0 
0.083778351545333862 -0.29901301860809326 0 
0.035839255899190903 -0.29737281799316406 0 
0.13886608183383942 -0.37065508961677551 0 
0.0015489965444430709 -0.15096105635166168 0 
0.045454546809196472 -0.5 0 
-0.13091655075550079 -0.26459729671478271 0 
-0.17047177255153656 -0.24272710084915161 0 
0.036587957292795181 -0.33164200186729431 0 
-0.092979848384857178 -0.39442375302314758 0 
-0.079599492251873016 -0.3630281388759613 0 
-0.1825440526008606 -0.127757728099823 0 
-0.16231466829776764 -0.16184303164482117 0 
-0.082642234861850739 -0.2589547336101532 0 
-0.10234096646308899 -0.23038919270038605 0 
-0.32691687345504761 -0.28354981541633606 0 
-0.23545126616954803 -0.12300250679254532 0 
-0.2088543027639389 -0.14955702424049377 0 
-0.012756249867379665 -0.29355183243751526 0 
-0.045505538582801819 -0.36150524020195007 0 
-0.22481487691402435 -0.23912160098552704 0 
-0.27733126282691956 -0.20938663184642792 0 
-0.28506872057914734 -0.24115176498889923 0 
-0.38716736435890198 -0.11453525722026825 0 
-0.38636362552642822 -0.38636362552642822 0 
-0.29314380884170532 -0.28916636109352112 0 
-0.37262624502182007 -0.35374698042869568 0 
-0.29151350259780884 -0.17306163907051086 0 
-0.32969337701797485 -0.18099510669708252 0 
-0.23956635594367981 -0.19082562625408173 0 
-0.38636362552642822 -0.078835226595401764 0 
-0.3477838933467865 -0.088392466306686401 0 
-0.25805830955505371 -0.15302686393260956 0 
0.092143431305885315 -0.064017318189144135 0 
-0.13329663872718811 -0.18120898306369781 0 
-0.042648870497941971 -0.13708138465881348 0 
0.079488985240459442 -0.11579868942499161 0 
-0.27272728085517883 -0.5 0 
-0.3873850405216217 -0.42513248324394226 0 
-0.33350828289985657 -0.40551924705505371 0 
-0.33292847871780396 -0.34995129704475403 0 
-0.22848279774188995 -0.39209568500518799 0 
-0.18181972205638885 -0.3566950261592865 0 
0.35699367523193359 -0.35217112302780151 0 
0.5 -0.22727273404598236 0 
-0.045454546809196472 -0.5 0 
-0.090879648923873901 -0.42988801002502441 0 
-0.11363636702299118 -0.074500016868114471 0 
-0.079949311912059784 -0.079628787934780121 0 
-0.19107185304164886 -0.43194249272346497 0 
-0.5 -0.31818181276321411 0 
-0.31760972738265991 -0.14331066608428955 0 
-0.35438692569732666 -0.38063022494316101 0 
-0.2160516083240509 -0.36002713441848755 0 
-0.5 -0.090909093618392944 0 
0.22122618556022644 -0.11664091050624847 0 
0.20556464791297913 -0.21241937577724457 0 
0.23813872039318085 -0.24761058390140533 0 
0.15904930233955383 -0.17060749232769012 0 
0.16509617865085602 -0.22054657340049744 0 
0.073098704218864441 -0.26594263315200806 0 
0.19126218557357788 -0.13066968321800232 0 
0.13841244578361511 -0.26318991184234619 0 
0.11850552260875702 -0.29769837856292725 0 
0.2096208781003952 -0.17134267091751099 0 
0.269330233335495 -0.23222093284130096 0 
0.24635566771030426 -0.20610731840133667 0 
0.10587570071220398 -0.26741650700569153 0 
0.27122190594673157 -0.33834627270698547 0 
-0.039886809885501862 -0.17766483128070831 0 
-0.067902646958827972 -0.22614286839962006 0 
-0.10371255129575729 -0.28801405429840088 0 
-0.1633940190076828 -0.19808602333068848 0 
-0.13395659625530243 -0.21608948707580566 0 
-0.19786003232002258 -0.19641862809658051 0 
-0.22714236378669739 -0.31155553460121155 0 
0.2434382289648056 -0.17239946126937866 0 
3 0 1 2 
3 3 4 5 
3 6 7 8 
3 9 5 4 
3 10 11 12 
3 13 14 15 
3 16 17 18 
3 19 20 21 
3 22 23 24 
3 25 21 26 
3 27 28 29 
3 30 31 32 
3 24 33 34 
3 35 36 37 
3 38 39 40 
3 41 42 43 
3 44 45 46 
3 47 48 49 
3 50 51 52 
3 48 47 53 
3 54 55 56 
3 55 57 58 
3 59 50 52 
3 60 61 62 
3 62 61 51 
3 63 64 65 
3 1 66 67 
3 68 69 70 
3 49 48 71 
3 72 68 73 
3 74 75 76 
3 77 78 75 
3 44 79 80 
3 81 82 83 
3 84 85 86 
3 87 88 89 
3 88 87 90 
3 91 92 93 
3 94 95 96 
3 97 98 99 
3 100 101 102 
3 96 103 104 
3 105 37 106 
3 107 108 109 
3 110 111 112 
3 113 111 114 
3 115 116 28 
3 117 118 7 
3 119 120 121 
3 122 3 117 
3 123 117 124 
3 125 10 121 
3 124 117 7 
3 126 127 128 
3 129 130 131 
3 119 132 133 
3 14 134 135 
3 136 137 138 
3 139 140 141 
3 142 143 144 
3 128 145 146 
3 147 126 143 
3 145 148 141 
3 137 142 144 
3 14 139 15 
3 149 150 151 
3 110 152 111 
3 17 153 154 
3 21 20 155 
3 156 157 132 
3 8 158 159 
3 160 161 5 
3 29 28 154 
3 162 163 164 
3 165 166 167 
3 168 169 170 
3 91 171 172 
3 167 173 174 
3 175 176 177 
3 38 40 178 
3 47 179 180 
3 97 181 182 
3 33 183 34 
3 92 184 93 
3 97 101 181 
3 1 0 66 
3 185 186 187 
3 188 189 190 
3 75 78 76 
3 191 81 73 
3 192 193 194 
3 195 190 189 
3 52 182 59 
3 180 196 58 
3 197 198 199 
3 200 65 201 
3 90 202 38 
3 189 188 187 
3 105 203 204 
3 205 206 32 
3 207 208 209 
3 210 91 93 
3 209 211 207 
3 28 212 154 
3 135 213 14 
3 214 107 109 
3 215 139 141 
3 216 217 150 
3 218 219 125 
3 156 132 160 
3 137 144 138 
3 121 10 161 
3 114 220 221 
3 163 168 222 
3 2 223 224 
3 225 226 34 
3 227 94 96 
3 87 202 90 
3 228 229 230 
3 231 232 233 
3 128 127 234 
3 143 126 128 
3 83 82 77 
3 81 235 73 
3 54 236 237 
3 61 54 51 
3 122 130 238 
3 131 130 122 
3 239 240 26 
3 204 241 105 
3 113 222 19 
3 152 220 111 
3 101 97 99 
3 200 201 194 
3 242 243 102 
3 2 243 242 
3 244 79 44 
3 68 245 246 
3 89 185 247 
3 75 79 244 
3 23 33 24 
3 16 226 107 
3 123 131 122 
3 248 129 131 
3 249 127 126 
3 249 126 147 
3 90 94 227 
3 202 39 38 
3 250 82 81 
3 250 81 191 
3 236 61 60 
3 61 236 54 
3 251 124 252 
3 220 253 221 
3 132 157 133 
3 132 161 160 
3 215 15 139 
3 139 213 140 
3 145 140 254 
3 217 216 213 
3 13 116 115 
3 14 213 139 
3 255 151 119 
3 254 256 146 
3 114 221 8 
3 8 159 257 
3 258 259 118 
3 12 260 158 
3 261 262 107 
3 18 23 22 
3 263 264 265 
3 266 149 254 
3 267 159 260 
3 162 268 269 
3 25 112 21 
3 270 239 21 
3 248 123 251 
3 6 253 124 
3 138 255 119 
3 264 219 265 
3 114 8 257 
3 271 272 11 
3 118 259 7 
3 161 10 258 
3 6 124 7 
3 7 259 8 
3 116 212 28 
3 273 27 274 
3 217 275 276 
3 219 264 271 
3 260 12 11 
3 264 277 278 
3 203 240 204 
3 203 105 279 
3 228 214 109 
3 174 275 274 
3 280 207 41 
3 281 233 282 
3 283 163 222 
3 270 284 204 
3 97 285 286 
3 0 99 66 
3 287 66 288 
3 184 289 93 
3 36 290 40 
3 279 105 106 
3 291 292 293 
3 208 294 282 
3 295 296 297 
3 225 298 261 
3 299 53 180 
3 198 196 199 
3 73 235 244 
3 246 191 73 
3 227 300 301 
3 93 289 302 
3 303 225 304 
3 34 183 305 
3 104 103 43 
3 289 296 295 
3 66 98 288 
3 66 287 172 
3 304 305 223 
3 66 172 67 
3 101 100 181 
3 0 242 101 
3 285 192 286 
3 306 52 56 
3 307 197 199 
3 286 194 98 
3 179 308 180 
3 69 49 70 
3 80 188 309 
3 46 49 69 
3 280 310 30 
3 300 227 96 
3 235 83 75 
3 75 74 79 
3 45 85 46 
3 72 244 44 
3 186 301 187 
3 74 188 79 
3 289 311 296 
3 65 64 312 
3 45 309 313 
3 63 308 84 
3 314 296 312 
3 315 189 301 
3 72 44 69 
3 49 71 70 
3 52 306 316 
3 182 317 59 
3 196 198 58 
3 198 197 306 
3 47 180 53 
3 85 84 318 
3 180 308 196 
3 198 55 58 
3 296 201 312 
3 314 64 319 
3 299 180 58 
3 299 58 57 
3 49 46 318 
3 47 49 318 
3 85 313 86 
3 84 308 179 
3 94 90 38 
3 39 177 40 
3 74 76 185 
3 74 187 188 
3 31 95 290 
3 36 40 177 
3 186 185 88 
3 186 88 90 
3 94 38 178 
3 95 178 290 
3 103 310 43 
3 94 178 95 
3 320 281 205 
3 204 240 239 
3 105 205 37 
3 106 37 176 
3 155 20 170 
3 233 281 320 
3 35 31 290 
3 37 205 32 
3 175 279 106 
3 37 36 176 
3 321 233 232 
3 281 282 206 
3 322 207 211 
3 91 210 323 
3 298 262 261 
3 304 1 67 
3 324 262 325 
3 326 327 108 
3 16 214 153 
3 17 328 18 
3 214 228 29 
3 153 29 154 
3 275 217 135 
3 273 134 115 
3 328 17 154 
3 328 154 212 
3 14 13 115 
3 28 27 273 
3 148 215 141 
3 140 145 141 
3 275 173 276 
3 217 213 135 
3 275 135 274 
3 165 174 230 
3 132 121 161 
3 10 12 258 
3 9 156 160 
3 161 329 5 
3 9 160 5 
3 329 3 5 
3 120 151 218 
3 119 121 132 
3 119 133 138 
3 144 256 255 
3 133 136 138 
3 136 133 157 
3 253 252 124 
3 252 253 330 
3 113 114 257 
3 111 19 112 
3 220 330 253 
3 330 220 152 
3 111 113 19 
3 111 220 114 
3 183 224 305 
3 304 34 305 
3 325 262 298 
3 225 34 304 
3 224 243 2 
3 1 304 223 
3 16 22 226 
3 226 24 34 
3 67 331 303 
3 331 67 172 
3 186 90 227 
3 315 300 332 
3 185 89 88 
3 187 74 185 
3 228 333 229 
3 108 334 326 
3 163 283 267 
3 168 335 169 
3 336 211 326 
3 334 262 324 
3 162 337 338 
3 339 291 166 
3 263 167 277 
3 269 167 166 
3 146 143 128 
3 234 148 145 
3 142 147 143 
3 143 146 144 
3 128 234 145 
3 216 266 140 
3 235 81 83 
3 83 77 75 
3 54 56 51 
3 237 55 54 
3 50 62 51 
3 51 56 52 
3 237 57 55 
3 55 198 56 
3 117 123 122 
3 238 4 3 
3 248 131 123 
3 123 124 251 
3 122 238 3 
3 329 118 3 
3 270 204 239 
3 239 26 21 
3 241 205 105 
3 241 284 320 
3 113 283 222 
3 222 20 19 
3 25 110 112 
3 112 19 21 
3 0 101 99 
3 99 98 66 
3 340 197 307 
3 285 182 316 
3 181 317 182 
3 317 181 100 
3 0 2 242 
3 242 102 101 
3 235 75 244 
3 72 73 244 
3 68 72 69 
3 68 246 73 
3 76 247 185 
3 247 76 78 
3 214 16 107 
3 262 334 107 
3 16 18 22 
3 22 24 226 
3 221 6 8 
3 6 221 253 
3 146 145 254 
3 256 149 255 
3 217 265 150 
3 216 140 213 
3 149 151 255 
3 255 138 144 
3 254 149 256 
3 256 144 146 
3 283 113 257 
3 283 257 159 
3 10 125 11 
3 272 260 11 
3 12 158 258 
3 258 329 161 
3 158 259 258 
3 259 158 8 
3 261 226 225 
3 226 261 107 
3 216 150 266 
3 266 254 140 
3 272 278 267 
3 267 283 159 
3 335 163 162 
3 337 291 338 
3 167 269 277 
3 217 276 265 
3 151 265 218 
3 125 121 120 
3 264 278 271 
3 271 11 125 
3 329 258 118 
3 118 117 3 
3 115 28 273 
3 134 274 135 
3 167 263 173 
3 173 275 174 
3 219 218 265 
3 219 271 125 
3 260 159 158 
3 272 267 260 
3 278 272 271 
3 278 268 164 
3 228 27 29 
3 333 339 229 
3 174 165 167 
3 174 274 230 
3 294 208 280 
3 310 341 30 
3 20 222 168 
3 338 231 335 
3 284 270 155 
3 284 241 204 
3 241 320 205 
3 282 294 206 
3 342 211 343 
3 282 321 209 
3 98 97 286 
3 286 192 194 
3 344 288 194 
3 344 194 201 
3 344 287 288 
3 288 98 194 
3 345 300 96 
3 297 296 314 
3 311 344 201 
3 344 184 287 
3 169 231 233 
3 321 343 209 
3 208 207 280 
3 208 282 209 
3 332 300 345 
3 195 189 315 
3 346 308 63 
3 196 308 346 
3 186 227 301 
3 301 189 187 
3 104 347 210 
3 295 345 302 
3 171 348 325 
3 41 207 322 
3 303 331 298 
3 304 67 303 
3 347 104 43 
3 310 280 41 
3 184 344 311 
3 289 295 302 
3 2 1 223 
3 223 305 224 
3 316 197 340 
3 182 52 316 
3 306 197 316 
3 56 198 306 
3 340 307 193 
3 199 196 346 
3 245 68 70 
3 245 70 71 
3 79 188 80 
3 309 44 80 
3 46 85 318 
3 46 69 44 
3 294 280 30 
3 31 35 32 
3 345 104 302 
3 341 103 95 
3 309 190 313 
3 309 45 44 
3 289 184 311 
3 311 201 296 
3 85 45 313 
3 64 86 319 
3 200 307 63 
3 63 84 64 
3 200 63 65 
3 65 312 201 
3 349 297 314 
3 314 312 64 
3 349 195 297 
3 315 301 300 
3 179 47 318 
3 179 318 84 
3 64 84 86 
3 86 313 319 
3 36 35 290 
3 290 178 40 
3 341 31 30 
3 31 341 95 
3 350 233 320 
3 350 320 284 
3 175 106 176 
3 176 36 177 
3 270 21 155 
3 350 284 155 
3 35 37 32 
3 32 294 30 
3 282 233 321 
3 321 232 343 
3 205 281 206 
3 206 294 32 
3 42 347 43 
3 324 325 351 
3 302 104 210 
3 302 210 93 
3 210 347 323 
3 287 92 172 
3 348 322 351 
3 331 171 325 
3 334 336 326 
3 325 348 351 
3 292 291 339 
3 232 291 293 
3 214 29 153 
3 17 16 153 
3 276 263 265 
3 263 276 173 
3 230 27 228 
3 27 230 274 
3 119 151 120 
3 218 125 120 
3 331 325 298 
3 225 303 298 
3 291 337 166 
3 333 292 339 
3 327 292 333 
3 336 322 211 
3 335 168 163 
3 163 267 164 
3 20 168 170 
3 350 169 233 
3 292 326 342 
3 343 293 342 
3 334 108 107 
3 334 324 336 
3 335 162 338 
3 338 291 232 
3 165 339 166 
3 337 269 166 
3 264 263 277 
3 277 268 278 
3 269 268 277 
3 337 162 269 
3 192 316 340 
3 307 200 193 
3 97 182 285 
3 285 316 192 
3 150 149 266 
3 150 265 151 
3 273 274 134 
3 134 14 115 
3 268 162 164 
3 267 278 164 
3 229 165 230 
3 165 229 339 
3 338 232 231 
3 231 169 335 
3 297 332 295 
3 345 96 104 
3 297 315 332 
3 332 345 295 
3 190 349 313 
3 195 315 297 
3 307 199 346 
3 307 346 63 
3 91 323 171 
3 171 331 172 
3 41 43 310 
3 41 322 42 
3 192 340 193 
3 193 200 194 
3 341 310 103 
3 103 96 95 
3 349 314 319 
3 349 319 313 
3 42 348 323 
3 348 42 322 
3 336 324 351 
3 336 351 322 
3 323 348 171 
3 347 42 323 
3 287 184 92 
3 92 91 172 
3 343 232 293 
3 293 292 342 
3 326 292 327 
3 327 333 109 
3 211 342 326 
3 211 209 343 
3 350 155 170 
3 350 170 169 
3 195 349 190 
3 309 188 190 
3 333 228 109 
3 108 327 109 
3 352 353 354 
3 355 356 357 
3 358 359 360 
3 361 362 363 
3 39 202 364 
3 365 366 367 
3 368 177 369 
3 370 371 372 
3 26 240 373 
3 330 374 252 
3 375 376 377 
3 378 379 380 
3 381 382 383 
3 384 385 386 
3 387 388 389 
3 386 390 388 
3 390 385 391 
3 392 393 394 
3 395 396 397 
3 247 398 399 
3 400 401 402 
3 403 404 401 
3 405 406 407 
3 408 393 391 
3 394 409 410 
3 411 412 413 
3 409 414 410 
3 415 416 417 
3 418 419 420 
3 421 422 423 
3 424 417 419 
3 425 400 402 
3 404 426 427 
3 428 429 430 
3 431 432 433 
3 434 435 436 
3 430 437 438 
3 202 439 364 
3 440 441 442 
3 443 370 372 
3 444 441 445 
3 279 446 447 
3 448 374 449 
3 450 451 452 
3 444 453 454 
3 455 456 457 
3 110 25 458 
3 376 459 460 
3 461 462 379 
3 463 464 465 
3 466 467 468 
3 379 469 380 
3 470 471 472 
3 467 473 474 
3 475 476 477 
3 478 479 152 
3 476 381 477 
3 374 330 479 
3 480 481 482 
3 483 480 482 
3 484 483 485 
3 251 484 485 
3 448 484 252 
3 129 248 486 
3 487 383 488 
3 25 489 458 
3 454 490 491 
3 240 492 373 
3 383 382 488 
3 456 491 457 
3 487 488 462 
3 471 468 472 
3 451 493 452 
3 368 446 175 
3 430 438 494 
3 495 465 496 
3 492 203 447 
3 441 357 442 
3 497 438 498 
3 368 499 446 
3 497 498 500 
3 501 502 435 
3 503 504 505 
3 423 506 399 
3 438 365 494 
3 507 508 509 
3 510 511 512 
3 247 78 398 
3 513 514 358 
3 402 515 516 
3 421 517 422 
3 518 519 520 
3 387 78 77 
3 521 522 512 
3 398 78 387 
3 423 523 439 
3 524 478 458 
3 525 361 526 
3 527 528 529 
3 446 530 447 
3 513 531 532 
3 533 534 535 
3 536 537 463 
3 487 461 538 
3 539 540 541 
3 480 476 542 
3 543 544 496 
3 472 456 470 
3 545 546 547 
3 451 370 548 
3 498 437 549 
3 406 405 550 
3 369 39 364 
3 551 397 552 
3 360 359 553 
3 554 513 532 
3 402 555 425 
3 556 557 511 
3 558 510 559 
3 82 386 388 
3 424 415 417 
3 560 532 561 
3 486 248 485 
3 562 381 563 
3 564 474 378 
3 467 474 564 
3 418 427 565 
3 404 418 401 
3 393 566 391 
3 385 390 386 
3 567 363 568 
3 375 569 562 
3 454 450 490 
3 548 493 451 
3 414 412 410 
3 393 558 566 
3 489 373 567 
3 570 530 571 
3 482 486 485 
3 572 129 486 
3 468 467 564 
3 466 473 467 
3 403 426 404 
3 404 427 418 
3 250 384 386 
3 250 386 82 
3 491 543 454 
3 450 452 490 
3 554 532 560 
3 557 556 353 
3 573 541 563 
3 480 542 481 
3 377 574 375 
3 539 541 575 
3 573 483 575 
3 448 449 539 
3 541 573 575 
3 484 251 252 
3 248 251 485 
3 483 482 485 
3 460 459 576 
3 478 152 110 
3 478 459 479 
3 479 330 152 
3 374 448 252 
3 374 479 449 
3 459 539 449 
3 459 449 479 
3 540 375 562 
3 539 459 376 
3 577 578 579 
3 543 491 544 
3 580 537 536 
3 381 581 382 
3 544 491 582 
3 583 472 584 
3 579 583 584 
3 536 577 488 
3 584 564 380 
3 469 577 579 
3 567 585 489 
3 489 25 26 
3 478 110 458 
3 489 524 458 
3 452 586 490 
3 586 452 493 
3 545 371 587 
3 451 450 453 
3 588 457 490 
3 588 490 586 
3 589 499 395 
3 368 175 177 
3 497 366 365 
3 371 547 497 
3 590 526 363 
3 463 537 591 
3 592 361 593 
3 464 594 465 
3 454 595 444 
3 445 451 453 
3 356 596 357 
3 597 444 595 
3 530 570 598 
3 492 240 203 
3 547 371 545 
3 599 600 601 
3 444 597 441 
3 545 587 602 
3 570 589 603 
3 492 530 598 
3 372 500 604 
3 604 498 549 
3 508 605 606 
3 434 528 527 
3 599 607 547 
3 503 608 609 
3 431 610 611 
3 439 433 364 
3 611 397 431 
3 612 613 605 
3 535 614 352 
3 523 615 616 
3 502 617 435 
3 618 609 494 
3 619 620 621 
3 566 558 622 
3 506 89 399 
3 87 439 202 
3 392 558 393 
3 393 408 394 
3 556 411 353 
3 412 414 413 
3 514 359 358 
3 554 416 513 
3 623 354 516 
3 515 402 420 
3 521 557 614 
3 510 558 511 
3 504 503 501 
3 520 624 535 
3 354 623 625 
3 411 413 555 
3 626 627 522 
3 619 628 620 
3 566 629 389 
3 558 559 622 
3 412 556 392 
3 392 511 558 
3 89 247 399 
3 630 629 622 
3 422 631 615 
3 87 506 439 
3 421 423 399 
3 421 399 398 
3 87 89 506 
3 506 423 439 
3 489 26 373 
3 492 598 632 
3 203 279 447 
3 530 492 447 
3 499 589 571 
3 446 279 175 
3 552 397 633 
3 397 551 395 
3 530 446 571 
3 589 634 603 
3 635 590 363 
3 570 571 589 
3 415 636 416 
3 416 554 417 
3 637 623 515 
3 560 638 554 
3 639 560 533 
3 614 624 521 
3 406 503 505 
3 532 531 640 
3 550 608 503 
3 406 641 407 
3 382 580 488 
3 544 578 642 
3 488 469 462 
3 643 383 538 
3 461 487 462 
3 462 469 379 
3 643 477 383 
3 383 487 538 
3 381 476 563 
3 591 537 569 
3 480 573 563 
3 476 475 542 
3 643 475 477 
3 477 381 383 
3 578 577 642 
3 491 456 582 
3 472 583 582 
3 456 455 470 
3 588 455 457 
3 457 491 490 
3 445 441 602 
3 371 370 587 
3 445 587 451 
3 370 443 548 
3 604 443 372 
3 371 497 500 
3 498 438 437 
3 437 644 549 
3 644 430 429 
3 360 428 405 
3 644 437 430 
3 645 428 430 
3 364 432 369 
3 433 523 610 
3 177 39 369 
3 646 368 369 
3 646 432 396 
3 499 647 395 
3 648 405 407 
3 553 429 428 
3 533 560 561 
3 531 407 640 
3 360 553 428 
3 428 645 550 
3 531 513 358 
3 360 405 648 
3 645 430 494 
3 609 608 494 
3 555 649 425 
3 555 354 411 
3 412 411 556 
3 556 511 392 
3 555 402 516 
3 555 516 354 
3 413 649 555 
3 649 413 414 
3 392 394 410 
3 392 410 412 
3 629 398 387 
3 77 388 387 
3 398 630 421 
3 626 650 627 
3 77 82 388 
3 629 387 389 
3 638 651 637 
3 535 352 639 
3 513 636 514 
3 636 513 416 
3 358 648 531 
3 652 640 407 
3 541 562 563 
3 563 476 480 
3 482 572 486 
3 572 482 481 
3 584 468 564 
3 564 378 380 
3 471 466 468 
3 468 584 472 
3 418 420 401 
3 565 424 419 
3 400 403 401 
3 401 420 402 
3 418 565 419 
3 417 638 637 
3 390 566 389 
3 390 389 388 
3 653 408 391 
3 391 566 390 
3 385 653 391 
3 653 385 384 
3 576 524 654 
3 655 596 656 
3 381 562 581 
3 581 537 382 
3 657 362 658 
3 601 659 436 
3 660 585 568 
3 459 478 576 
3 661 662 442 
3 357 596 442 
3 596 661 442 
3 663 657 655 
3 543 595 454 
3 544 495 496 
3 353 352 614 
3 353 411 354 
3 483 484 575 
3 483 573 480 
3 664 665 656 
3 537 581 569 
3 448 539 575 
3 448 575 484 
3 524 660 654 
3 524 576 478 
3 539 376 540 
3 540 562 541 
3 376 375 540 
3 376 460 377 
3 495 642 536 
3 577 469 488 
3 382 537 580 
3 580 536 488 
3 578 544 582 
3 582 456 472 
3 583 578 582 
3 380 579 584 
3 380 469 579 
3 579 578 583 
3 585 524 489 
3 657 663 660 
3 587 445 602 
3 587 370 451 
3 647 646 396 
3 646 647 368 
3 438 497 365 
3 365 618 494 
3 547 366 497 
3 662 600 440 
3 601 367 607 
3 666 661 592 
3 495 536 463 
3 664 464 591 
3 525 528 436 
3 600 546 440 
3 596 356 656 
3 665 655 656 
3 635 567 632 
3 585 567 568 
3 444 445 453 
3 453 450 454 
3 356 594 656 
3 597 355 357 
3 597 357 441 
3 594 356 355 
3 496 667 595 
3 595 355 597 
3 598 635 632 
3 570 590 635 
3 617 367 601 
3 659 525 436 
3 602 440 546 
3 440 602 441 
3 590 570 603 
3 528 526 529 
3 633 397 611 
3 434 668 669 
3 612 501 435 
3 668 552 669 
3 670 612 605 
3 367 502 618 
3 432 646 369 
3 432 431 396 
3 633 611 671 
3 610 523 616 
3 508 504 605 
3 672 671 606 
3 673 611 616 
3 631 628 616 
3 624 519 621 
3 557 353 614 
3 523 423 615 
3 615 631 616 
3 367 366 607 
3 618 365 367 
3 645 494 608 
3 406 550 503 
3 628 631 626 
3 628 673 616 
3 629 566 622 
3 559 630 622 
3 515 623 516 
3 419 637 420 
3 620 626 522 
3 624 621 521 
3 510 627 559 
3 511 557 512 
3 505 504 507 
3 501 670 504 
3 508 606 518 
3 561 640 652 
3 651 623 637 
3 352 354 625 
3 626 631 422 
3 620 628 626 
3 673 628 619 
3 605 672 606 
3 398 629 630 
3 650 517 559 
3 517 421 630 
3 422 615 423 
3 373 492 632 
3 373 632 567 
3 368 647 499 
3 499 571 446 
3 634 551 668 
3 613 612 669 
3 589 395 634 
3 634 668 603 
3 598 570 635 
3 635 363 567 
3 419 417 637 
3 637 515 420 
3 560 639 651 
3 638 417 554 
3 625 651 639 
3 625 639 352 
3 621 620 522 
3 519 619 621 
3 641 406 505 
3 504 508 507 
3 561 532 640 
3 641 652 407 
3 645 608 550 
3 405 428 550 
3 495 544 642 
3 642 577 536 
3 375 574 569 
3 569 581 562 
3 372 371 500 
3 500 498 604 
3 439 523 433 
3 433 432 364 
3 395 647 396 
3 396 431 397 
3 358 360 648 
3 648 407 531 
3 535 639 533 
3 561 652 534 
3 501 503 609 
3 618 502 609 
3 626 422 650 
3 650 559 627 
3 652 674 534 
3 652 641 509 
3 675 460 663 
3 657 658 655 
3 661 596 658 
3 362 361 592 
3 661 658 592 
3 593 361 525 
3 617 601 436 
3 436 528 434 
3 524 585 660 
3 663 460 654 
3 662 440 442 
3 600 659 601 
3 665 663 655 
3 655 658 596 
3 595 543 496 
3 465 667 496 
3 377 665 574 
3 656 594 464 
3 460 576 654 
3 660 663 654 
3 665 664 574 
3 460 675 377 
3 545 602 546 
3 546 599 547 
3 599 601 607 
3 607 366 547 
3 662 661 666 
3 659 600 666 
3 664 656 464 
3 464 463 591 
3 526 361 363 
3 666 593 659 
3 657 660 568 
3 568 363 362 
3 667 355 595 
3 355 667 465 
3 668 434 527 
3 668 527 603 
3 672 552 633 
3 611 673 671 
3 669 612 435 
3 672 613 552 
3 434 669 435 
3 435 617 436 
3 501 612 670 
3 670 605 504 
3 367 617 502 
3 502 501 609 
3 672 633 671 
3 673 619 606 
3 606 619 518 
3 671 673 606 
3 431 433 610 
3 610 616 611 
3 534 520 535 
3 535 624 614 
3 521 621 522 
3 522 627 512 
3 627 510 512 
3 512 557 521 
3 641 505 507 
3 509 508 518 
3 674 509 518 
3 518 619 519 
3 625 623 651 
3 638 560 651 
3 517 650 422 
3 517 630 559 
3 551 634 395 
3 551 552 668 
3 613 672 605 
3 613 669 552 
3 533 561 534 
3 674 518 520 
3 641 507 509 
3 674 652 509 
3 675 665 377 
3 665 675 663 
3 657 568 362 
3 362 592 658 
3 666 592 593 
3 593 525 659 
3 600 662 666 
3 600 599 546 
3 495 463 465 
3 594 355 465 
3 574 591 569 
3 591 574 664 
3 528 525 526 
3 603 527 529 
3 534 674 520 
3 520 519 624 
3 590 603 529 
3 590 529 526 
